<svg id="Layer_1" data-name="Layer 1" xmlns="http://www.w3.org/2000/svg" viewBox="0 0 276 60">
  <defs>
    <style>
    .cls-1{fill:#c3c3c3;}
    .cls-2{fill:#e2231a;}
    .cls-3{fill:#00c1de;}
    .cls-4{fill:#bfbfbf;}
    .cls-5{fill:#d9d9d9;}
    .cls-6{fill:#ebebeb;}
    .cls-7{fill:none;}
    .cls-8{fill:#d32c27;}
    .cls-9{fill:#be2526;}
    .cls-10{opacity:0.6;}
    .cls-11{fill:#b21e28;}
    .cls-12{fill:#fff;}
    </style>
  </defs>

  <path class="cls-1" d="M72,33.51c-.45,0-.51-.58-.51-1.32s.06-1.36.51-1.36h10.3c.45,0,.51.58.51,1.36s-.06,1.32-.51,1.32H78.68V49.58c0,.55-.66.65-1.5.65s-1.5-.1-1.5-.65V33.51Z"/>
  <path class="cls-1" d="M99,49.58c0,.55-.66.65-1.5.65s-1.5-.1-1.5-.65V42H89v7.53c0,.55-.66.65-1.5.65s-1.5-.1-1.5-.65V31.48c0-.55.66-.65,1.5-.65s1.5.1,1.5.65V39.2H96V31.48c0-.55.66-.65,1.5-.65s1.5.1,1.5.65Z"/>
  <path class="cls-1" d="M112.43,48.87c0,.78,0,1.36-.51,1.36h-7.49c-.84,0-1.53-.1-1.53-.65V31.48c0-.55.69-.65,1.53-.65h7.49c.48,0,.51.58.51,1.36s0,1.32-.51,1.32h-6v5.62h4c.45,0,.54.58.54,1.36s-.09,1.33-.54,1.33h-4v5.72h6C112.4,47.54,112.43,48.12,112.43,48.87Z"/>
  <path class="cls-1" d="M243.26,42.47V31.29c0-.55.69-.65,1.56-.65s1.56.1,1.56.65V49.44c0,.48-.44.58-.93.58-.69,0-1.09-.1-1.4-.55L236,37.91h-.22V49.38c0,.55-.69.65-1.56.65s-1.56-.1-1.56-.65V31.23c0-.48.44-.58.93-.58.69,0,1.06.06,1.37.52L243,42.47Z"/>
  <path class="cls-1" d="M256.5,39.14l3.36-7.94c.22-.48.84-.55,1.62-.55s1.65,0,1.65.55L257.9,44.11v5.26c0,.55-.68.65-1.56.65s-1.56-.1-1.56-.65V44.11L249.55,31.2c0-.52.81-.55,1.65-.55s1.4.06,1.62.55l3.36,7.94Z"/>
  <path class="cls-1" d="M272.39,50.15c-5.89,0-8.1-3.39-8.1-9.69,0-5,1.28-10,7.91-10a14.63,14.63,0,0,1,3.52.36.54.54,0,0,1,.28.55c0,.55-.06,1.87-.75,2a8.27,8.27,0,0,0-2.18-.26c-4.58,0-5.67,2.55-5.67,7.3,0,4.91,1.31,7,5.67,7a8.45,8.45,0,0,0,2.18-.26c.4,0,.59.78.65,1.1a4.08,4.08,0,0,1,.09.94.54.54,0,0,1-.28.55A12.71,12.71,0,0,1,272.39,50.15Z"/>
  <path class="cls-2" d="M176.84,30.48c.86,0,.89,1.26.89,2.62s0,2.58-.89,2.58h-5.46V38.8h4.11c.79,0,.83,1.29.83,2.52s0,2.49-.83,2.49h-4.11v5.5c0,1-1.39,1.06-3,1.06s-2.95,0-2.95-1.06V31.54c0-1,1.39-1.06,2.95-1.06Z"/>
  <path class="cls-2" d="M183.26,46l-.53,3.35c-.17,1-1.69,1-3.11,1s-2.72,0-2.72-1l3.81-17.76c.23-1,2.72-1.13,4.37-1.13s4.17.1,4.4,1.13l3.81,17.76c0,1-1.26,1-2.75,1s-2.88,0-3-1L186.9,46ZM185,36.78l-.89,4.71h2.05l-.89-4.71Z"/>
  <path class="cls-2" d="M201.8,46h-.93V49.3c0,1-1.39,1.06-3,1.06s-2.95,0-2.95-1.06V31.54c0-1,1.39-1.06,2.95-1.06h3.94c6,0,7.35,3,7.35,7.69,0,2.72-.53,4.94-2.09,6.36v.36L209,49.4c0,.93-1.09,1-2.55,1s-2.81-.1-3.21-1Zm1.46-7.59c0-2.19-1.06-2.55-2-2.55h-.36V41h.36C202.2,41,203.26,40.66,203.26,38.37Z"/>
  <path class="cls-2" d="M223,31.54c.66-1,1.46-1.06,3.08-1.06s3,0,3,1.06V49.3c0,1-1.39,1.06-2.95,1.06s-3,0-3-1.06V41.92h-.26l-1.69,3c-.23.4-.6.46-1.16.46s-.93-.07-1.16-.46l-1.69-3h-.26V49.3c0,1-1.39,1.06-3,1.06s-2.95,0-2.95-1.06V31.54c0-1,1.39-1.06,3-1.06s2.42.1,3.08,1.06l2.81,5.63h.33Z"/>
  <path class="cls-3" d="M121.76,46l-.53,3.35c-.17,1-1.69,1-3.11,1s-2.72,0-2.72-1l3.81-17.76c.23-1,2.72-1.13,4.37-1.13s4.17.1,4.4,1.13l3.81,17.76c0,1-1.26,1-2.75,1s-2.88,0-3-1L125.4,46Zm1.69-9.24-.89,4.71h2.05l-.89-4.71Z"/>
  <path class="cls-3" d="M141,46H140V49.3c0,1-1.39,1.06-3,1.06s-2.95,0-2.95-1.06V31.54c0-1,1.39-1.06,2.95-1.06H141c6,0,7.35,3,7.35,7.69,0,2.72-.53,4.94-2.09,6.36v.36l1.92,4.51c0,.93-1.09,1-2.55,1s-2.81-.1-3.21-1Zm1.46-7.59c0-2.19-1.06-2.55-2-2.55H140V41h.36C141.36,41,142.42,40.66,142.42,38.37Z"/>
  <path class="cls-3" d="M158.41,35.69V49.3c0,1-1.39,1.06-3,1.06s-2.95,0-2.95-1.06V35.69h-2.91c-.86,0-.89-1.26-.89-2.58s0-2.62.89-2.62h11.79c.86,0,.89,1.26.89,2.62s0,2.58-.89,2.58Z"/>
  <polygon class="cls-4" points="27.11 59.89 13.76 59.98 13.76 11.87 26.92 11.87 27.11 59.89"/>
  <polygon class="cls-5" points="59.77 59.96 39.7 59.96 39.7 8.99 52.17 8.99 52.17 15.87 59.77 15.87 59.77 59.96"/>
  <path id="svg_12" data-name="svg 12" class="cls-6" d="M36.55,0a4.52,4.52,0,0,0-4.19,3.14,1.6,1.6,0,0,0-2.21,1,1.77,1.77,0,0,0-.08.44A3.32,3.32,0,0,0,26.54,6,2.15,2.15,0,0,0,27,8.59a3.65,3.65,0,0,0,4.13.55A2.3,2.3,0,0,0,34,10.56a2.47,2.47,0,0,0,.95-.64A2.93,2.93,0,0,0,38,9.66a3.61,3.61,0,0,0,5.28-.15c.16-.11.2-.45.43-.37a2,2,0,1,0-.27-3.9c-.22.1-.31-.25-.49-.34A3.83,3.83,0,0,0,41.12,4a4.53,4.53,0,0,0-3.77-4A4.37,4.37,0,0,0,36.55,0Z"/>
  <path id="svg_8" data-name="svg 8" class="cls-6" d="M62.29,22a2.81,2.81,0,0,0-2.22,2.55,2.18,2.18,0,0,0-1.09.56c-.11.06-.16.28-.29.22a1.17,1.17,0,0,0-1.33,1.17,1.21,1.21,0,0,0,1.17,1.33c.14,0,.16.16.25.24a2,2,0,0,0,3.11.1,1.61,1.61,0,0,0,1.81.17,1.46,1.46,0,0,0,.56.41A1.33,1.33,0,0,0,66,27.83a2,2,0,0,0,2.43-.36,1.47,1.47,0,0,0,.25-1.63,1.89,1.89,0,0,0-2.08-.94,1.23,1.23,0,0,0,0-.28.92.92,0,0,0-1.3-.64,2.7,2.7,0,0,0-2.47-2A2.37,2.37,0,0,0,62.29,22Z"/>
  <path class="cls-7" d="M12.58,57.54a3.46,3.46,0,0,0,.06.51l-.11-12.31C12.54,52.35,12.56,57,12.58,57.54Z"/>
  <polygon class="cls-1" points="58.37 34.21 58.36 34.2 58.36 34.21 58.37 34.21"/>
  <path class="cls-5" d="M59.46,60l3.42,0a1.75,1.75,0,0,0,1.61-1.86V43.66H54.71V60Z"/>
  <path class="cls-5" d="M9.87,60H13.8V25.78H8.29V58.2A1.68,1.68,0,0,0,9.87,60Z"/>
  <polygon class="cls-4" points="46.34 24.22 47.37 24.22 47.36 26.43 51.38 28.57 51.3 31.67 54.71 36.84 54.71 1.71 44.4 1.71 44.4 24.86 46.34 25.9 46.34 24.22"/>
  <polygon class="cls-4" points="49.13 59.96 53.69 59.95 54.71 59.95 54.71 43.66 54.71 38.97 49.13 59.96"/>
  <polygon class="cls-8" points="55.11 37.45 54.71 36.84 54.71 38.97 55.11 37.45"/>
  <polygon class="cls-9" points="47.37 24.22 46.34 24.22 46.34 25.9 47.36 26.43 47.37 24.22"/>
  <polygon class="cls-9" points="23.55 22.77 22.53 22.76 22.52 26.85 23.54 26.07 23.55 22.77"/>
  <path class="cls-6" d="M3.62,22.8c-1.42,0-2.52.07-3.17-.67a1.7,1.7,0,0,1,.21-2.5A2.51,2.51,0,0,1,3,19s-.9-1.44,1.21-2.38A2.76,2.76,0,0,1,7,17s0-1.23,1.58-1.64a3.46,3.46,0,0,1,3.42,1,1.93,1.93,0,0,1,.08,2.27c-.18.24,1.68-.06,2.5.52a2.09,2.09,0,0,1,.79,2.36c-.19.83-1.46,1.33-3.71,1.33Z"/>
  <path class="cls-2" d="M51.3,31.67l.07-3.1-4-2.13-1-.54v.45L44.4,25l-.51-.36-9-7.1-8.66,6.57-2.65,2-1,.78-4.23,3.21-.22.17-1.72,1.44-2.13,4.5,5.53,21.16a14.31,14.31,0,0,1,2.66-3.68h0a9.75,9.75,0,0,1,1-.86,9.48,9.48,0,0,1,1.77-1c.31-.14.64-.26,1-.37a16.82,16.82,0,0,1,2.94-.65,5.25,5.25,0,0,1,.29-1.09A5,5,0,0,0,26.19,48l-.29,0-.26,0a6.63,6.63,0,0,1-2.17-1.19l-.32-.27L23,46.27c-.19-.18-.37-.37-.54-.55a17.58,17.58,0,0,1-2-2.84c-.41-.68-2.13-2.33-1.24-3.14.55-.5,2,0,3.23.11h0l1,.26.29.08a16,16,0,0,1,2.4.92q.4.19.79.41l0,0a11.38,11.38,0,0,1,2.52,2c0-.2,0-.41,0-.61a14.16,14.16,0,0,1,.7-4.11c0-.06,0-.14,0-.23h0v0l0-.28.06-.4,0-.28v0l.06-.29v0a3.69,3.69,0,0,1,.28-.87h0a1.19,1.19,0,0,1,.53-.57h0a.87.87,0,0,1,.35-.08c.76,0,1.49,1.26,2.23,2.13q.35.51.67,1.05A13.1,13.1,0,0,1,35.86,42a8.88,8.88,0,0,1,.33,2.46,4.79,4.79,0,0,1,2.3.5h0l.39.23h0a4.21,4.21,0,0,1,.37.27l.23.19h0a19.43,19.43,0,0,1,3.15,2.8c.6.79.81,2.34-.17,3-.11,1.28-1.2,2.07-2.76,2.57a16.62,16.62,0,0,1,.67,6h8.73l5.58-21V36.84Z"/>

  <g class="cls-10">
    <polygon class="cls-11" points="47.36 26.43 46.34 25.9 46.3 59.96 47.16 59.96 47.36 26.43"/>
    <path class="cls-11" d="M23.47,46.68l-.32-.27L23,46.27c-.19-.18-.37-.37-.54-.55l0,7.93a9.74,9.74,0,0,1,1-.86Z"/>
    <path class="cls-11" d="M23.49,40.11l0-14-1,.78,0,13Z"/>
    <path class="cls-11" d="M30.25,38.61c0-.2.07-.45.11-.72.12-.82.32-1.8.93-2.09l.06-15-1,.77Z"/>
    <path class="cls-11" d="M38.49,44.91a4.39,4.39,0,0,1,.79.51l.23.19.09-23.85-1-.76Z"/>
  </g>

  <path class="cls-12" d="M30.28,24v9.3h9.29V24Zm3.8,4.66-2.62,2.62V26.09Zm-1.81-3.48h5.28l-2.64,2.64Zm2.64,4.31,2.62,2.62H32.29Zm.83-.83,2.64-2.64v5.29Z"/>
  <path class="cls-12" d="M42.7,48.42a17.59,17.59,0,0,0-3-2.64l-.19-.16h0l-.23-.19-.25-.19-.12-.08-.1-.06-.32-.18a4.79,4.79,0,0,0-2.3-.5A8.88,8.88,0,0,0,35.9,42a12.62,12.62,0,0,0-1-2.37q-.18-.35-.38-.68-.32-.54-.67-1.05c-.74-.87-1.47-2.15-2.23-2.13a.87.87,0,0,0-.35.08,1.19,1.19,0,0,0-.53.57h0a3.36,3.36,0,0,0-.25.71v0l0,.12v.06l0,.1v.07l0,.09,0,.1v.07l0,.17,0,.17c0,.2-.05.39-.08.54h0c0,.08,0,.16,0,.23a14.16,14.16,0,0,0-.7,4.11c0,.21,0,.41,0,.61a11.38,11.38,0,0,0-2.52-2l0,0q-.4-.22-.79-.41a16,16,0,0,0-2.4-.92l-.29-.08-1-.26h0c-1.19-.15-2.68-.61-3.23-.11-.9.81.82,2.46,1.24,3.14a17.58,17.58,0,0,0,2,2.84c.17.18.34.37.54.55l.16.14.32.27a6.63,6.63,0,0,0,2.17,1.19l.26,0,.29,0a5,5,0,0,1,3.23,1.69,5.25,5.25,0,0,0-.29,1.09,16.82,16.82,0,0,0-2.94.65c-.33.11-.65.23-1,.37a9.48,9.48,0,0,0-1.77,1,9.74,9.74,0,0,0-1,.86h0a14.31,14.31,0,0,0-2.66,3.68c-.22.41-.43.84-.64,1.3s-.31.89-.45,1.32H40.43a16.62,16.62,0,0,0-.67-6c1.56-.5,2.65-1.3,2.76-2.57C43.51,50.75,43.3,49.21,42.7,48.42Z"/>
  <polyline class="cls-3" points="39.59 21.77 50.38 29.79 55.01 38.94 58.76 37.05 53.68 27.01 36.15 13.89 34.91 12.97 16.07 27.01 10.99 37.05 14.74 38.95 19.37 29.79 30.31 21.62 34.91 18.09 34.91 18.09"/>
</svg>

